<svg 
    xmlns="http://www.w3.org/2000/svg"
    width="645" 
    height="645" 
    viewBox="0 0 647 647" 
    version="1.1"
    fill="#fafaf9"
>
    <path 
        d="M 289 1.152 C 192.574 11.208, 105.333 64.660, 51.707 146.540 C 23.879 189.028, 6.221 239.326, 1.041 290.856 C -0.532 306.502, -0.250 343.314, 1.562 359 C 17.065 493.166, 112.896 602.948, 243.445 636.095 C 270.511 642.967, 280.495 644.150, 316.152 644.707 C 343.087 645.128, 351.141 644.922, 362.152 643.531 C 412.344 637.192, 459.741 619.716, 500.513 592.516 C 521.365 578.604, 533.974 568.210, 552 550.073 C 603.247 498.508, 633.646 436.145, 643.674 362 C 646.192 343.385, 646.227 300.778, 643.738 283.373 C 641.400 267.014, 639.417 256.698, 635.979 243 C 617.380 168.905, 570.695 101.441, 507.705 57.633 C 463.391 26.814, 412.956 7.797, 359 1.562 C 344.147 -0.154, 303.792 -0.390, 289 1.152 M 299.500 49.630 C 259.206 53.909, 229.681 62.428, 196.500 79.349 C 169.815 92.958, 147.038 109.924, 124.983 132.619 C 95.368 163.095, 74.950 196.727, 61.612 237 C 52.801 263.605, 49.096 285.338, 48.305 315.053 C 47.178 357.378, 53.652 392.222, 69.662 430 C 86.517 469.773, 115.972 508.886, 149 535.350 C 243.155 610.794, 373.616 616.898, 473 550.511 C 489.963 539.180, 500.273 530.753, 514.590 516.520 C 560.131 471.243, 587.397 413.605, 594.047 348.553 C 595.583 333.530, 594.739 297.373, 592.528 283.500 C 584.746 234.668, 566.284 191.504, 537.139 154 C 528.081 142.343, 507.623 121.488, 495.210 111.257 C 457.247 79.965, 411.396 59.596, 361.500 51.857 C 348.929 49.907, 310.045 48.510, 299.500 49.630 M 277 123.452 L 277 128.905 282.862 129.202 L 288.725 129.500 302.337 146 L 315.949 162.500 315.974 183.250 L 316 204 321.500 204 L 327 204 327 183.675 L 327 163.351 341.250 146.230 L 355.500 129.110 361.250 129.055 L 367 129 367 123.500 L 367 118 358.750 118.059 L 350.500 118.118 345 124.753 C 341.975 128.402, 335.530 136.045, 330.678 141.738 L 321.855 152.089 308.245 135.044 L 294.636 118 285.818 118 L 277 118 277 123.452 M 254.250 135.766 C 251.912 137.270, 250.204 139.046, 250.455 139.714 C 250.705 140.382, 256.802 149.997, 264.004 161.082 C 271.206 172.166, 276.959 181.375, 276.789 181.545 C 276.618 181.715, 262.984 177.171, 246.490 171.448 C 229.995 165.725, 215.808 161.032, 214.962 161.021 C 214.116 161.009, 211.993 162.238, 210.243 163.750 L 207.061 166.500 225.996 195.500 C 236.410 211.450, 245.086 224.918, 245.275 225.429 C 245.464 225.940, 247.733 224.904, 250.317 223.126 C 254.122 220.508, 254.833 219.572, 254.061 218.197 C 253.538 217.264, 247.294 207.500, 240.188 196.500 C 233.081 185.500, 227.323 176.421, 227.392 176.324 C 227.462 176.227, 241.464 180.993, 258.509 186.914 L 289.500 197.680 293.269 195.194 C 296.746 192.902, 296.933 192.545, 295.669 190.604 C 294.916 189.447, 286.321 176.012, 276.570 160.750 C 266.818 145.488, 258.763 133.007, 258.670 133.016 C 258.576 133.025, 256.587 134.262, 254.250 135.766 M 382.024 139.542 C 374.675 141.599, 369.256 144.914, 364.103 150.504 C 357.135 158.064, 355.500 162.718, 355.500 175 C 355.500 184.544, 355.756 186.001, 358.315 191 C 365.725 205.480, 380.546 213.537, 396.180 211.583 C 403.946 210.613, 404.299 210.233, 402.457 204.827 L 400.906 200.276 396.369 201.123 C 379.816 204.216, 363.128 188.672, 365.378 172.258 C 367.319 158.097, 377.292 149.057, 391 149.032 C 402.517 149.010, 412.450 155.757, 416.494 166.346 C 418.419 171.387, 418.662 171.499, 424.257 169.946 C 427.668 168.998, 427.957 168.654, 427.396 166.201 C 426.058 160.342, 421.988 152.985, 417.849 148.942 C 408.734 140.040, 394.027 136.181, 382.024 139.542 M 147 322.500 L 147 491 157.997 491 L 168.993 491 169.247 342.325 L 169.500 193.650 199.750 234.841 C 216.387 257.497, 230 276.277, 230 276.576 C 230 276.875, 226.922 280.805, 223.159 285.310 C 205.797 306.096, 195.457 327.906, 190.355 354.500 C 187.789 367.873, 188.022 393.283, 190.833 406.565 C 193.850 420.824, 197.271 430.847, 203.440 443.500 C 210.661 458.311, 219.392 470.390, 232 483.011 C 251.783 502.814, 275.266 515.770, 302 521.630 C 314.961 524.471, 345.503 524.254, 360.665 521.212 C 390.433 515.240, 411.323 504.362, 432.490 483.811 L 443.500 473.122 436.048 465.584 L 428.596 458.046 421.048 465.326 C 400.245 485.389, 378.159 496.773, 351.074 501.392 C 312.196 508.023, 271.890 493.985, 243.668 463.985 C 221.387 440.300, 209.924 411.650, 209.940 379.679 C 209.954 348.850, 219.618 321.840, 238.715 299.251 L 243.152 294.003 282.326 347.468 C 303.872 376.874, 321.777 400.948, 322.116 400.967 C 322.455 400.985, 342.196 374.428, 365.984 341.952 C 408.990 283.240, 409.249 282.914, 411.368 284.662 C 412.541 285.628, 416.898 289.713, 421.052 293.739 L 428.604 301.060 435.876 293.560 L 443.148 286.061 440.387 282.440 C 438.868 280.449, 434.280 275.768, 430.192 272.037 C 424.538 266.879, 422.967 264.887, 423.629 263.720 C 424.108 262.876, 435.525 247.121, 449 228.710 L 473.500 195.234 473.753 343.117 L 474.007 491 485.006 491 L 496.006 491 495.753 322.750 L 495.500 154.500 485.500 154.248 L 475.500 153.996 440.090 201.949 C 420.614 228.323, 404.358 250.421, 403.965 251.056 C 403.465 251.865, 400.986 251.135, 395.672 248.614 C 385.932 243.992, 375.337 240.453, 363.183 237.761 C 355.090 235.969, 350.215 235.614, 333.500 235.595 C 316.374 235.577, 311.997 235.901, 303.043 237.848 C 285.641 241.633, 265.529 250.072, 252.320 259.133 C 250.021 260.710, 247.946 262, 247.709 262 C 247.472 262, 229.553 237.719, 207.889 208.043 L 168.500 154.085 157.750 154.043 L 147 154 147 322.500 M 317.430 257.046 C 298.235 259.554, 274.011 268.751, 261.781 278.176 C 260.224 279.376, 262.882 283.348, 290.108 320.500 C 306.633 343.050, 320.504 361.628, 320.932 361.785 C 321.676 362.058, 389 271.756, 389 270.485 C 389 269.178, 373.624 262.854, 364.783 260.524 C 348.766 256.304, 332.347 255.098, 317.430 257.046 M 0.437 323 C 0.437 337.575, 0.577 343.538, 0.747 336.250 C 0.918 328.962, 0.918 317.038, 0.747 309.750 C 0.577 302.462, 0.437 308.425, 0.437 323" 
        stroke="none"
        fill-rule="evenodd"
    />
</svg>